<svg width="3988" height="248" viewBox="0 0 3988 248" fill="none" xmlns="http://www.w3.org/2000/svg">
<path fill-rule="evenodd" clip-rule="evenodd" d="M964 80C970.627 80 976 74.6274 976 68C976 61.3726 970.627 56 964 56C957.373 56 952 61.3726 952 68C952 74.6274 957.373 80 964 80Z" fill="white"/>
<path fill-rule="evenodd" clip-rule="evenodd" d="M852 80C858.627 80 864 74.6274 864 68C864 61.3726 858.627 56 852 56C845.373 56 840 61.3726 840 68C840 74.6274 845.373 80 852 80Z" fill="white"/>
<path fill-rule="evenodd" clip-rule="evenodd" d="M740 80C746.627 80 752 74.6274 752 68C752 61.3726 746.627 56 740 56C733.373 56 728 61.3726 728 68C728 74.6274 733.373 80 740 80Z" fill="white"/>
<path fill-rule="evenodd" clip-rule="evenodd" d="M628 80C634.627 80 640 74.6274 640 68C640 61.3726 634.627 56 628 56C621.373 56 616 61.3726 616 68C616 74.6274 621.373 80 628 80Z" fill="white"/>
<path fill-rule="evenodd" clip-rule="evenodd" d="M516 80C522.627 80 528 74.6274 528 68C528 61.3726 522.627 56 516 56C509.373 56 504 61.3726 504 68C504 74.6274 509.373 80 516 80Z" fill="white"/>
<path fill-rule="evenodd" clip-rule="evenodd" d="M404 80C410.627 80 416 74.6274 416 68C416 61.3726 410.627 56 404 56C397.373 56 392 61.3726 392 68C392 74.6274 397.373 80 404 80Z" fill="white"/>
<path fill-rule="evenodd" clip-rule="evenodd" d="M292 80C298.627 80 304 74.6274 304 68C304 61.3726 298.627 56 292 56C285.373 56 280 61.3726 280 68C280 74.6274 285.373 80 292 80Z" fill="white"/>
<path fill-rule="evenodd" clip-rule="evenodd" d="M180 80C186.627 80 192 74.6274 192 68C192 61.3726 186.627 56 180 56C173.373 56 168 61.3726 168 68C168 74.6274 173.373 80 180 80Z" fill="white"/>
<path fill-rule="evenodd" clip-rule="evenodd" d="M68 80C74.6274 80 80 74.6274 80 68C80 61.3726 74.6274 56 68 56C61.3726 56 56 61.3726 56 68C56 74.6274 61.3726 80 68 80Z" fill="white"/>
<path fill-rule="evenodd" clip-rule="evenodd" d="M908 80C914.627 80 920 74.6274 920 68C920 61.3726 914.627 56 908 56C901.373 56 896 61.3726 896 68C896 74.6274 901.373 80 908 80Z" fill="white"/>
<path fill-rule="evenodd" clip-rule="evenodd" d="M796 80C802.627 80 808 74.6274 808 68C808 61.3726 802.627 56 796 56C789.373 56 784 61.3726 784 68C784 74.6274 789.373 80 796 80Z" fill="white"/>
<path fill-rule="evenodd" clip-rule="evenodd" d="M684 80C690.627 80 696 74.6274 696 68C696 61.3726 690.627 56 684 56C677.373 56 672 61.3726 672 68C672 74.6274 677.373 80 684 80Z" fill="white"/>
<path fill-rule="evenodd" clip-rule="evenodd" d="M572 80C578.627 80 584 74.6274 584 68C584 61.3726 578.627 56 572 56C565.373 56 560 61.3726 560 68C560 74.6274 565.373 80 572 80Z" fill="white"/>
<path fill-rule="evenodd" clip-rule="evenodd" d="M460 80C466.627 80 472 74.6274 472 68C472 61.3726 466.627 56 460 56C453.373 56 448 61.3726 448 68C448 74.6274 453.373 80 460 80Z" fill="white"/>
<path fill-rule="evenodd" clip-rule="evenodd" d="M348 80C354.627 80 360 74.6274 360 68C360 61.3726 354.627 56 348 56C341.373 56 336 61.3726 336 68C336 74.6274 341.373 80 348 80Z" fill="white"/>
<path fill-rule="evenodd" clip-rule="evenodd" d="M236 80C242.627 80 248 74.6274 248 68C248 61.3726 242.627 56 236 56C229.373 56 224 61.3726 224 68C224 74.6274 229.373 80 236 80Z" fill="white"/>
<path fill-rule="evenodd" clip-rule="evenodd" d="M124 80C130.627 80 136 74.6274 136 68C136 61.3726 130.627 56 124 56C117.373 56 112 61.3726 112 68C112 74.6274 117.373 80 124 80Z" fill="white"/>
<path fill-rule="evenodd" clip-rule="evenodd" d="M12 80C18.6274 80 24 74.6274 24 68C24 61.3726 18.6274 56 12 56C5.37258 56 0 61.3726 0 68C0 74.6274 5.37258 80 12 80Z" fill="white"/>
<path fill-rule="evenodd" clip-rule="evenodd" d="M964 136C970.627 136 976 130.627 976 124C976 117.373 970.627 112 964 112C957.373 112 952 117.373 952 124C952 130.627 957.373 136 964 136Z" fill="white"/>
<path fill-rule="evenodd" clip-rule="evenodd" d="M852 136C858.627 136 864 130.627 864 124C864 117.373 858.627 112 852 112C845.373 112 840 117.373 840 124C840 130.627 845.373 136 852 136Z" fill="white"/>
<path fill-rule="evenodd" clip-rule="evenodd" d="M740 136C746.627 136 752 130.627 752 124C752 117.373 746.627 112 740 112C733.373 112 728 117.373 728 124C728 130.627 733.373 136 740 136Z" fill="white"/>
<path fill-rule="evenodd" clip-rule="evenodd" d="M628 136C634.627 136 640 130.627 640 124C640 117.373 634.627 112 628 112C621.373 112 616 117.373 616 124C616 130.627 621.373 136 628 136Z" fill="white"/>
<path fill-rule="evenodd" clip-rule="evenodd" d="M516 136C522.627 136 528 130.627 528 124C528 117.373 522.627 112 516 112C509.373 112 504 117.373 504 124C504 130.627 509.373 136 516 136Z" fill="white"/>
<path fill-rule="evenodd" clip-rule="evenodd" d="M404 136C410.627 136 416 130.627 416 124C416 117.373 410.627 112 404 112C397.373 112 392 117.373 392 124C392 130.627 397.373 136 404 136Z" fill="white"/>
<path fill-rule="evenodd" clip-rule="evenodd" d="M292 136C298.627 136 304 130.627 304 124C304 117.373 298.627 112 292 112C285.373 112 280 117.373 280 124C280 130.627 285.373 136 292 136Z" fill="white"/>
<path fill-rule="evenodd" clip-rule="evenodd" d="M180 136C186.627 136 192 130.627 192 124C192 117.373 186.627 112 180 112C173.373 112 168 117.373 168 124C168 130.627 173.373 136 180 136Z" fill="white"/>
<path fill-rule="evenodd" clip-rule="evenodd" d="M68 136C74.6274 136 80 130.627 80 124C80 117.373 74.6274 112 68 112C61.3726 112 56 117.373 56 124C56 130.627 61.3726 136 68 136Z" fill="white"/>
<path fill-rule="evenodd" clip-rule="evenodd" d="M908 136C914.627 136 920 130.627 920 124C920 117.373 914.627 112 908 112C901.373 112 896 117.373 896 124C896 130.627 901.373 136 908 136Z" fill="white"/>
<path fill-rule="evenodd" clip-rule="evenodd" d="M796 136C802.627 136 808 130.627 808 124C808 117.373 802.627 112 796 112C789.373 112 784 117.373 784 124C784 130.627 789.373 136 796 136Z" fill="white"/>
<path fill-rule="evenodd" clip-rule="evenodd" d="M684 136C690.627 136 696 130.627 696 124C696 117.373 690.627 112 684 112C677.373 112 672 117.373 672 124C672 130.627 677.373 136 684 136Z" fill="white"/>
<path fill-rule="evenodd" clip-rule="evenodd" d="M572 136C578.627 136 584 130.627 584 124C584 117.373 578.627 112 572 112C565.373 112 560 117.373 560 124C560 130.627 565.373 136 572 136Z" fill="white"/>
<path fill-rule="evenodd" clip-rule="evenodd" d="M460 136C466.627 136 472 130.627 472 124C472 117.373 466.627 112 460 112C453.373 112 448 117.373 448 124C448 130.627 453.373 136 460 136Z" fill="white"/>
<path fill-rule="evenodd" clip-rule="evenodd" d="M348 136C354.627 136 360 130.627 360 124C360 117.373 354.627 112 348 112C341.373 112 336 117.373 336 124C336 130.627 341.373 136 348 136Z" fill="white"/>
<path fill-rule="evenodd" clip-rule="evenodd" d="M236 136C242.627 136 248 130.627 248 124C248 117.373 242.627 112 236 112C229.373 112 224 117.373 224 124C224 130.627 229.373 136 236 136Z" fill="white"/>
<path fill-rule="evenodd" clip-rule="evenodd" d="M124 136C130.627 136 136 130.627 136 124C136 117.373 130.627 112 124 112C117.373 112 112 117.373 112 124C112 130.627 117.373 136 124 136Z" fill="white"/>
<path fill-rule="evenodd" clip-rule="evenodd" d="M12 136C18.6274 136 24 130.627 24 124C24 117.373 18.6274 112 12 112C5.37258 112 0 117.373 0 124C0 130.627 5.37258 136 12 136Z" fill="white"/>
<path fill-rule="evenodd" clip-rule="evenodd" d="M964 192C970.627 192 976 186.627 976 180C976 173.373 970.627 168 964 168C957.373 168 952 173.373 952 180C952 186.627 957.373 192 964 192Z" fill="white"/>
<path fill-rule="evenodd" clip-rule="evenodd" d="M852 192C858.627 192 864 186.627 864 180C864 173.373 858.627 168 852 168C845.373 168 840 173.373 840 180C840 186.627 845.373 192 852 192Z" fill="white"/>
<path fill-rule="evenodd" clip-rule="evenodd" d="M740 192C746.627 192 752 186.627 752 180C752 173.373 746.627 168 740 168C733.373 168 728 173.373 728 180C728 186.627 733.373 192 740 192Z" fill="white"/>
<path fill-rule="evenodd" clip-rule="evenodd" d="M628 192C634.627 192 640 186.627 640 180C640 173.373 634.627 168 628 168C621.373 168 616 173.373 616 180C616 186.627 621.373 192 628 192Z" fill="white"/>
<path fill-rule="evenodd" clip-rule="evenodd" d="M516 192C522.627 192 528 186.627 528 180C528 173.373 522.627 168 516 168C509.373 168 504 173.373 504 180C504 186.627 509.373 192 516 192Z" fill="white"/>
<path fill-rule="evenodd" clip-rule="evenodd" d="M404 192C410.627 192 416 186.627 416 180C416 173.373 410.627 168 404 168C397.373 168 392 173.373 392 180C392 186.627 397.373 192 404 192Z" fill="white"/>
<path fill-rule="evenodd" clip-rule="evenodd" d="M292 192C298.627 192 304 186.627 304 180C304 173.373 298.627 168 292 168C285.373 168 280 173.373 280 180C280 186.627 285.373 192 292 192Z" fill="white"/>
<path fill-rule="evenodd" clip-rule="evenodd" d="M180 192C186.627 192 192 186.627 192 180C192 173.373 186.627 168 180 168C173.373 168 168 173.373 168 180C168 186.627 173.373 192 180 192Z" fill="white"/>
<path fill-rule="evenodd" clip-rule="evenodd" d="M68 192C74.6274 192 80 186.627 80 180C80 173.373 74.6274 168 68 168C61.3726 168 56 173.373 56 180C56 186.627 61.3726 192 68 192Z" fill="white"/>
<path fill-rule="evenodd" clip-rule="evenodd" d="M908 192C914.627 192 920 186.627 920 180C920 173.373 914.627 168 908 168C901.373 168 896 173.373 896 180C896 186.627 901.373 192 908 192Z" fill="white"/>
<path fill-rule="evenodd" clip-rule="evenodd" d="M796 192C802.627 192 808 186.627 808 180C808 173.373 802.627 168 796 168C789.373 168 784 173.373 784 180C784 186.627 789.373 192 796 192Z" fill="white"/>
<path fill-rule="evenodd" clip-rule="evenodd" d="M684 192C690.627 192 696 186.627 696 180C696 173.373 690.627 168 684 168C677.373 168 672 173.373 672 180C672 186.627 677.373 192 684 192Z" fill="white"/>
<path fill-rule="evenodd" clip-rule="evenodd" d="M572 192C578.627 192 584 186.627 584 180C584 173.373 578.627 168 572 168C565.373 168 560 173.373 560 180C560 186.627 565.373 192 572 192Z" fill="white"/>
<path fill-rule="evenodd" clip-rule="evenodd" d="M460 192C466.627 192 472 186.627 472 180C472 173.373 466.627 168 460 168C453.373 168 448 173.373 448 180C448 186.627 453.373 192 460 192Z" fill="white"/>
<path fill-rule="evenodd" clip-rule="evenodd" d="M348 192C354.627 192 360 186.627 360 180C360 173.373 354.627 168 348 168C341.373 168 336 173.373 336 180C336 186.627 341.373 192 348 192Z" fill="white"/>
<path fill-rule="evenodd" clip-rule="evenodd" d="M236 192C242.627 192 248 186.627 248 180C248 173.373 242.627 168 236 168C229.373 168 224 173.373 224 180C224 186.627 229.373 192 236 192Z" fill="white"/>
<path fill-rule="evenodd" clip-rule="evenodd" d="M124 192C130.627 192 136 186.627 136 180C136 173.373 130.627 168 124 168C117.373 168 112 173.373 112 180C112 186.627 117.373 192 124 192Z" fill="white"/>
<path fill-rule="evenodd" clip-rule="evenodd" d="M12 192C18.6274 192 24 186.627 24 180C24 173.373 18.6274 168 12 168C5.37258 168 0 173.373 0 180C0 186.627 5.37258 192 12 192Z" fill="white"/>
<path fill-rule="evenodd" clip-rule="evenodd" d="M964 248C970.627 248 976 242.627 976 236C976 229.373 970.627 224 964 224C957.373 224 952 229.373 952 236C952 242.627 957.373 248 964 248Z" fill="white"/>
<path fill-rule="evenodd" clip-rule="evenodd" d="M852 248C858.627 248 864 242.627 864 236C864 229.373 858.627 224 852 224C845.373 224 840 229.373 840 236C840 242.627 845.373 248 852 248Z" fill="white"/>
<path fill-rule="evenodd" clip-rule="evenodd" d="M740 248C746.627 248 752 242.627 752 236C752 229.373 746.627 224 740 224C733.373 224 728 229.373 728 236C728 242.627 733.373 248 740 248Z" fill="white"/>
<path fill-rule="evenodd" clip-rule="evenodd" d="M628 248C634.627 248 640 242.627 640 236C640 229.373 634.627 224 628 224C621.373 224 616 229.373 616 236C616 242.627 621.373 248 628 248Z" fill="white"/>
<path fill-rule="evenodd" clip-rule="evenodd" d="M516 248C522.627 248 528 242.627 528 236C528 229.373 522.627 224 516 224C509.373 224 504 229.373 504 236C504 242.627 509.373 248 516 248Z" fill="white"/>
<path d="M413.5 236C413.5 241.247 409.247 245.5 404 245.5C398.753 245.5 394.5 241.247 394.5 236C394.5 230.753 398.753 226.5 404 226.5C409.247 226.5 413.5 230.753 413.5 236Z" stroke="white" stroke-width="5"/>
<path fill-rule="evenodd" clip-rule="evenodd" d="M292 248C298.627 248 304 242.627 304 236C304 229.373 298.627 224 292 224C285.373 224 280 229.373 280 236C280 242.627 285.373 248 292 248Z" fill="white"/>
<path fill-rule="evenodd" clip-rule="evenodd" d="M180 248C186.627 248 192 242.627 192 236C192 229.373 186.627 224 180 224C173.373 224 168 229.373 168 236C168 242.627 173.373 248 180 248Z" fill="white"/>
<path fill-rule="evenodd" clip-rule="evenodd" d="M68 248C74.6274 248 80 242.627 80 236C80 229.373 74.6274 224 68 224C61.3726 224 56 229.373 56 236C56 242.627 61.3726 248 68 248Z" fill="white"/>
<path fill-rule="evenodd" clip-rule="evenodd" d="M908 248C914.627 248 920 242.627 920 236C920 229.373 914.627 224 908 224C901.373 224 896 229.373 896 236C896 242.627 901.373 248 908 248Z" fill="white"/>
<path fill-rule="evenodd" clip-rule="evenodd" d="M796 248C802.627 248 808 242.627 808 236C808 229.373 802.627 224 796 224C789.373 224 784 229.373 784 236C784 242.627 789.373 248 796 248Z" fill="white"/>
<path fill-rule="evenodd" clip-rule="evenodd" d="M684 248C690.627 248 696 242.627 696 236C696 229.373 690.627 224 684 224C677.373 224 672 229.373 672 236C672 242.627 677.373 248 684 248Z" fill="white"/>
<path fill-rule="evenodd" clip-rule="evenodd" d="M572 248C578.627 248 584 242.627 584 236C584 229.373 578.627 224 572 224C565.373 224 560 229.373 560 236C560 242.627 565.373 248 572 248Z" fill="white"/>
<path fill-rule="evenodd" clip-rule="evenodd" d="M460 248C466.627 248 472 242.627 472 236C472 229.373 466.627 224 460 224C453.373 224 448 229.373 448 236C448 242.627 453.373 248 460 248Z" fill="white"/>
<path fill-rule="evenodd" clip-rule="evenodd" d="M348 248C354.627 248 360 242.627 360 236C360 229.373 354.627 224 348 224C341.373 224 336 229.373 336 236C336 242.627 341.373 248 348 248Z" fill="white"/>
<path fill-rule="evenodd" clip-rule="evenodd" d="M236 248C242.627 248 248 242.627 248 236C248 229.373 242.627 224 236 224C229.373 224 224 229.373 224 236C224 242.627 229.373 248 236 248Z" fill="white"/>
<path fill-rule="evenodd" clip-rule="evenodd" d="M124 248C130.627 248 136 242.627 136 236C136 229.373 130.627 224 124 224C117.373 224 112 229.373 112 236C112 242.627 117.373 248 124 248Z" fill="white"/>
<path fill-rule="evenodd" clip-rule="evenodd" d="M12 248C18.6274 248 24 242.627 24 236C24 229.373 18.6274 224 12 224C5.37258 224 0 229.373 0 236C0 242.627 5.37258 248 12 248Z" fill="white"/>
<path fill-rule="evenodd" clip-rule="evenodd" d="M964 24C970.627 24 976 18.6274 976 12C976 5.37258 970.627 0 964 0C957.373 0 952 5.37258 952 12C952 18.6274 957.373 24 964 24Z" fill="white"/>
<path fill-rule="evenodd" clip-rule="evenodd" d="M852 24C858.627 24 864 18.6274 864 12C864 5.37258 858.627 0 852 0C845.373 0 840 5.37258 840 12C840 18.6274 845.373 24 852 24Z" fill="white"/>
<path fill-rule="evenodd" clip-rule="evenodd" d="M740 24C746.627 24 752 18.6274 752 12C752 5.37258 746.627 0 740 0C733.373 0 728 5.37258 728 12C728 18.6274 733.373 24 740 24Z" fill="white"/>
<path fill-rule="evenodd" clip-rule="evenodd" d="M628 24C634.627 24 640 18.6274 640 12C640 5.37258 634.627 0 628 0C621.373 0 616 5.37258 616 12C616 18.6274 621.373 24 628 24Z" fill="white"/>
<path fill-rule="evenodd" clip-rule="evenodd" d="M516 24C522.627 24 528 18.6274 528 12C528 5.37258 522.627 0 516 0C509.373 0 504 5.37258 504 12C504 18.6274 509.373 24 516 24Z" fill="white"/>
<path fill-rule="evenodd" clip-rule="evenodd" d="M404 24C410.627 24 416 18.6274 416 12C416 5.37258 410.627 0 404 0C397.373 0 392 5.37258 392 12C392 18.6274 397.373 24 404 24Z" fill="white"/>
<path fill-rule="evenodd" clip-rule="evenodd" d="M292 24C298.627 24 304 18.6274 304 12C304 5.37258 298.627 0 292 0C285.373 0 280 5.37258 280 12C280 18.6274 285.373 24 292 24Z" fill="white"/>
<path fill-rule="evenodd" clip-rule="evenodd" d="M180 24C186.627 24 192 18.6274 192 12C192 5.37258 186.627 0 180 0C173.373 0 168 5.37258 168 12C168 18.6274 173.373 24 180 24Z" fill="white"/>
<path fill-rule="evenodd" clip-rule="evenodd" d="M68 24C74.6274 24 80 18.6274 80 12C80 5.37258 74.6274 0 68 0C61.3726 0 56 5.37258 56 12C56 18.6274 61.3726 24 68 24Z" fill="white"/>
<path fill-rule="evenodd" clip-rule="evenodd" d="M908 24C914.627 24 920 18.6274 920 12C920 5.37258 914.627 0 908 0C901.373 0 896 5.37258 896 12C896 18.6274 901.373 24 908 24Z" fill="white"/>
<path fill-rule="evenodd" clip-rule="evenodd" d="M796 24C802.627 24 808 18.6274 808 12C808 5.37258 802.627 0 796 0C789.373 0 784 5.37258 784 12C784 18.6274 789.373 24 796 24Z" fill="white"/>
<path fill-rule="evenodd" clip-rule="evenodd" d="M684 24C690.627 24 696 18.6274 696 12C696 5.37258 690.627 0 684 0C677.373 0 672 5.37258 672 12C672 18.6274 677.373 24 684 24Z" fill="white"/>
<path fill-rule="evenodd" clip-rule="evenodd" d="M572 24C578.627 24 584 18.6274 584 12C584 5.37258 578.627 0 572 0C565.373 0 560 5.37258 560 12C560 18.6274 565.373 24 572 24Z" fill="white"/>
<path fill-rule="evenodd" clip-rule="evenodd" d="M460 24C466.627 24 472 18.6274 472 12C472 5.37258 466.627 0 460 0C453.373 0 448 5.37258 448 12C448 18.6274 453.373 24 460 24Z" fill="white"/>
<path fill-rule="evenodd" clip-rule="evenodd" d="M348 24C354.627 24 360 18.6274 360 12C360 5.37258 354.627 0 348 0C341.373 0 336 5.37258 336 12C336 18.6274 341.373 24 348 24Z" fill="white"/>
<path fill-rule="evenodd" clip-rule="evenodd" d="M236 24C242.627 24 248 18.6274 248 12C248 5.37258 242.627 0 236 0C229.373 0 224 5.37258 224 12C224 18.6274 229.373 24 236 24Z" fill="white"/>
<path fill-rule="evenodd" clip-rule="evenodd" d="M124 24C130.627 24 136 18.6274 136 12C136 5.37258 130.627 0 124 0C117.373 0 112 5.37258 112 12C112 18.6274 117.373 24 124 24Z" fill="white"/>
<path fill-rule="evenodd" clip-rule="evenodd" d="M12 24C18.6274 24 24 18.6274 24 12C24 5.37258 18.6274 0 12 0C5.37258 0 0 5.37258 0 12C0 18.6274 5.37258 24 12 24Z" fill="white"/>
<path fill-rule="evenodd" clip-rule="evenodd" d="M1968 80C1974.63 80 1980 74.6274 1980 68C1980 61.3726 1974.63 56 1968 56C1961.37 56 1956 61.3726 1956 68C1956 74.6274 1961.37 80 1968 80Z" fill="white"/>
<path fill-rule="evenodd" clip-rule="evenodd" d="M1856 80C1862.63 80 1868 74.6274 1868 68C1868 61.3726 1862.63 56 1856 56C1849.37 56 1844 61.3726 1844 68C1844 74.6274 1849.37 80 1856 80Z" fill="white"/>
<path fill-rule="evenodd" clip-rule="evenodd" d="M1744 80C1750.63 80 1756 74.6274 1756 68C1756 61.3726 1750.63 56 1744 56C1737.37 56 1732 61.3726 1732 68C1732 74.6274 1737.37 80 1744 80Z" fill="white"/>
<path fill-rule="evenodd" clip-rule="evenodd" d="M1632 80C1638.63 80 1644 74.6274 1644 68C1644 61.3726 1638.63 56 1632 56C1625.37 56 1620 61.3726 1620 68C1620 74.6274 1625.37 80 1632 80Z" fill="white"/>
<path fill-rule="evenodd" clip-rule="evenodd" d="M1520 80C1526.63 80 1532 74.6274 1532 68C1532 61.3726 1526.63 56 1520 56C1513.37 56 1508 61.3726 1508 68C1508 74.6274 1513.37 80 1520 80Z" fill="white"/>
<path fill-rule="evenodd" clip-rule="evenodd" d="M1408 80C1414.63 80 1420 74.6274 1420 68C1420 61.3726 1414.63 56 1408 56C1401.37 56 1396 61.3726 1396 68C1396 74.6274 1401.37 80 1408 80Z" fill="white"/>
<path fill-rule="evenodd" clip-rule="evenodd" d="M1296 80C1302.63 80 1308 74.6274 1308 68C1308 61.3726 1302.63 56 1296 56C1289.37 56 1284 61.3726 1284 68C1284 74.6274 1289.37 80 1296 80Z" fill="white"/>
<path fill-rule="evenodd" clip-rule="evenodd" d="M1184 80C1190.63 80 1196 74.6274 1196 68C1196 61.3726 1190.63 56 1184 56C1177.37 56 1172 61.3726 1172 68C1172 74.6274 1177.37 80 1184 80Z" fill="white"/>
<path fill-rule="evenodd" clip-rule="evenodd" d="M1072 80C1078.63 80 1084 74.6274 1084 68C1084 61.3726 1078.63 56 1072 56C1065.37 56 1060 61.3726 1060 68C1060 74.6274 1065.37 80 1072 80Z" fill="white"/>
<path fill-rule="evenodd" clip-rule="evenodd" d="M1912 80C1918.63 80 1924 74.6274 1924 68C1924 61.3726 1918.63 56 1912 56C1905.37 56 1900 61.3726 1900 68C1900 74.6274 1905.37 80 1912 80Z" fill="white"/>
<path fill-rule="evenodd" clip-rule="evenodd" d="M1800 80C1806.63 80 1812 74.6274 1812 68C1812 61.3726 1806.63 56 1800 56C1793.37 56 1788 61.3726 1788 68C1788 74.6274 1793.37 80 1800 80Z" fill="white"/>
<path fill-rule="evenodd" clip-rule="evenodd" d="M1688 80C1694.63 80 1700 74.6274 1700 68C1700 61.3726 1694.63 56 1688 56C1681.37 56 1676 61.3726 1676 68C1676 74.6274 1681.37 80 1688 80Z" fill="white"/>
<path fill-rule="evenodd" clip-rule="evenodd" d="M1576 80C1582.63 80 1588 74.6274 1588 68C1588 61.3726 1582.63 56 1576 56C1569.37 56 1564 61.3726 1564 68C1564 74.6274 1569.37 80 1576 80Z" fill="white"/>
<path fill-rule="evenodd" clip-rule="evenodd" d="M1464 80C1470.63 80 1476 74.6274 1476 68C1476 61.3726 1470.63 56 1464 56C1457.37 56 1452 61.3726 1452 68C1452 74.6274 1457.37 80 1464 80Z" fill="white"/>
<path fill-rule="evenodd" clip-rule="evenodd" d="M1352 80C1358.63 80 1364 74.6274 1364 68C1364 61.3726 1358.63 56 1352 56C1345.37 56 1340 61.3726 1340 68C1340 74.6274 1345.37 80 1352 80Z" fill="white"/>
<path fill-rule="evenodd" clip-rule="evenodd" d="M1240 80C1246.63 80 1252 74.6274 1252 68C1252 61.3726 1246.63 56 1240 56C1233.37 56 1228 61.3726 1228 68C1228 74.6274 1233.37 80 1240 80Z" fill="white"/>
<path fill-rule="evenodd" clip-rule="evenodd" d="M1128 80C1134.63 80 1140 74.6274 1140 68C1140 61.3726 1134.63 56 1128 56C1121.37 56 1116 61.3726 1116 68C1116 74.6274 1121.37 80 1128 80Z" fill="white"/>
<path fill-rule="evenodd" clip-rule="evenodd" d="M1016 80C1022.63 80 1028 74.6274 1028 68C1028 61.3726 1022.63 56 1016 56C1009.37 56 1004 61.3726 1004 68C1004 74.6274 1009.37 80 1016 80Z" fill="white"/>
<path fill-rule="evenodd" clip-rule="evenodd" d="M1968 136C1974.63 136 1980 130.627 1980 124C1980 117.373 1974.63 112 1968 112C1961.37 112 1956 117.373 1956 124C1956 130.627 1961.37 136 1968 136Z" fill="white"/>
<path fill-rule="evenodd" clip-rule="evenodd" d="M1856 136C1862.63 136 1868 130.627 1868 124C1868 117.373 1862.63 112 1856 112C1849.37 112 1844 117.373 1844 124C1844 130.627 1849.37 136 1856 136Z" fill="white"/>
<path fill-rule="evenodd" clip-rule="evenodd" d="M1744 136C1750.63 136 1756 130.627 1756 124C1756 117.373 1750.63 112 1744 112C1737.37 112 1732 117.373 1732 124C1732 130.627 1737.37 136 1744 136Z" fill="white"/>
<path fill-rule="evenodd" clip-rule="evenodd" d="M1632 136C1638.63 136 1644 130.627 1644 124C1644 117.373 1638.63 112 1632 112C1625.37 112 1620 117.373 1620 124C1620 130.627 1625.37 136 1632 136Z" fill="white"/>
<path fill-rule="evenodd" clip-rule="evenodd" d="M1520 136C1526.63 136 1532 130.627 1532 124C1532 117.373 1526.63 112 1520 112C1513.37 112 1508 117.373 1508 124C1508 130.627 1513.37 136 1520 136Z" fill="white"/>
<path fill-rule="evenodd" clip-rule="evenodd" d="M1408 136C1414.63 136 1420 130.627 1420 124C1420 117.373 1414.63 112 1408 112C1401.37 112 1396 117.373 1396 124C1396 130.627 1401.37 136 1408 136Z" fill="white"/>
<path fill-rule="evenodd" clip-rule="evenodd" d="M1296 136C1302.63 136 1308 130.627 1308 124C1308 117.373 1302.63 112 1296 112C1289.37 112 1284 117.373 1284 124C1284 130.627 1289.37 136 1296 136Z" fill="white"/>
<path fill-rule="evenodd" clip-rule="evenodd" d="M1184 136C1190.63 136 1196 130.627 1196 124C1196 117.373 1190.63 112 1184 112C1177.37 112 1172 117.373 1172 124C1172 130.627 1177.37 136 1184 136Z" fill="white"/>
<path fill-rule="evenodd" clip-rule="evenodd" d="M1072 136C1078.63 136 1084 130.627 1084 124C1084 117.373 1078.63 112 1072 112C1065.37 112 1060 117.373 1060 124C1060 130.627 1065.37 136 1072 136Z" fill="white"/>
<path fill-rule="evenodd" clip-rule="evenodd" d="M1912 136C1918.63 136 1924 130.627 1924 124C1924 117.373 1918.63 112 1912 112C1905.37 112 1900 117.373 1900 124C1900 130.627 1905.37 136 1912 136Z" fill="white"/>
<path fill-rule="evenodd" clip-rule="evenodd" d="M1800 136C1806.63 136 1812 130.627 1812 124C1812 117.373 1806.63 112 1800 112C1793.37 112 1788 117.373 1788 124C1788 130.627 1793.37 136 1800 136Z" fill="white"/>
<path fill-rule="evenodd" clip-rule="evenodd" d="M1688 136C1694.63 136 1700 130.627 1700 124C1700 117.373 1694.63 112 1688 112C1681.37 112 1676 117.373 1676 124C1676 130.627 1681.37 136 1688 136Z" fill="white"/>
<path fill-rule="evenodd" clip-rule="evenodd" d="M1576 136C1582.63 136 1588 130.627 1588 124C1588 117.373 1582.63 112 1576 112C1569.37 112 1564 117.373 1564 124C1564 130.627 1569.37 136 1576 136Z" fill="white"/>
<path fill-rule="evenodd" clip-rule="evenodd" d="M1464 136C1470.63 136 1476 130.627 1476 124C1476 117.373 1470.63 112 1464 112C1457.37 112 1452 117.373 1452 124C1452 130.627 1457.37 136 1464 136Z" fill="white"/>
<path fill-rule="evenodd" clip-rule="evenodd" d="M1352 136C1358.63 136 1364 130.627 1364 124C1364 117.373 1358.63 112 1352 112C1345.37 112 1340 117.373 1340 124C1340 130.627 1345.37 136 1352 136Z" fill="white"/>
<path fill-rule="evenodd" clip-rule="evenodd" d="M1240 136C1246.63 136 1252 130.627 1252 124C1252 117.373 1246.63 112 1240 112C1233.37 112 1228 117.373 1228 124C1228 130.627 1233.37 136 1240 136Z" fill="white"/>
<path fill-rule="evenodd" clip-rule="evenodd" d="M1128 136C1134.63 136 1140 130.627 1140 124C1140 117.373 1134.63 112 1128 112C1121.37 112 1116 117.373 1116 124C1116 130.627 1121.37 136 1128 136Z" fill="white"/>
<path fill-rule="evenodd" clip-rule="evenodd" d="M1016 136C1022.63 136 1028 130.627 1028 124C1028 117.373 1022.63 112 1016 112C1009.37 112 1004 117.373 1004 124C1004 130.627 1009.37 136 1016 136Z" fill="white"/>
<path fill-rule="evenodd" clip-rule="evenodd" d="M1968 192C1974.63 192 1980 186.627 1980 180C1980 173.373 1974.63 168 1968 168C1961.37 168 1956 173.373 1956 180C1956 186.627 1961.37 192 1968 192Z" fill="white"/>
<path fill-rule="evenodd" clip-rule="evenodd" d="M1856 192C1862.63 192 1868 186.627 1868 180C1868 173.373 1862.63 168 1856 168C1849.37 168 1844 173.373 1844 180C1844 186.627 1849.37 192 1856 192Z" fill="white"/>
<path fill-rule="evenodd" clip-rule="evenodd" d="M1744 192C1750.63 192 1756 186.627 1756 180C1756 173.373 1750.63 168 1744 168C1737.37 168 1732 173.373 1732 180C1732 186.627 1737.37 192 1744 192Z" fill="white"/>
<path fill-rule="evenodd" clip-rule="evenodd" d="M1632 192C1638.63 192 1644 186.627 1644 180C1644 173.373 1638.63 168 1632 168C1625.37 168 1620 173.373 1620 180C1620 186.627 1625.37 192 1632 192Z" fill="white"/>
<path fill-rule="evenodd" clip-rule="evenodd" d="M1520 192C1526.63 192 1532 186.627 1532 180C1532 173.373 1526.63 168 1520 168C1513.37 168 1508 173.373 1508 180C1508 186.627 1513.37 192 1520 192Z" fill="white"/>
<path fill-rule="evenodd" clip-rule="evenodd" d="M1408 192C1414.63 192 1420 186.627 1420 180C1420 173.373 1414.63 168 1408 168C1401.37 168 1396 173.373 1396 180C1396 186.627 1401.37 192 1408 192Z" fill="white"/>
<path fill-rule="evenodd" clip-rule="evenodd" d="M1296 192C1302.63 192 1308 186.627 1308 180C1308 173.373 1302.63 168 1296 168C1289.37 168 1284 173.373 1284 180C1284 186.627 1289.37 192 1296 192Z" fill="white"/>
<path fill-rule="evenodd" clip-rule="evenodd" d="M1184 192C1190.63 192 1196 186.627 1196 180C1196 173.373 1190.63 168 1184 168C1177.37 168 1172 173.373 1172 180C1172 186.627 1177.37 192 1184 192Z" fill="white"/>
<path fill-rule="evenodd" clip-rule="evenodd" d="M1072 192C1078.63 192 1084 186.627 1084 180C1084 173.373 1078.63 168 1072 168C1065.37 168 1060 173.373 1060 180C1060 186.627 1065.37 192 1072 192Z" fill="white"/>
<path fill-rule="evenodd" clip-rule="evenodd" d="M1912 192C1918.63 192 1924 186.627 1924 180C1924 173.373 1918.63 168 1912 168C1905.37 168 1900 173.373 1900 180C1900 186.627 1905.37 192 1912 192Z" fill="white"/>
<path fill-rule="evenodd" clip-rule="evenodd" d="M1800 192C1806.63 192 1812 186.627 1812 180C1812 173.373 1806.63 168 1800 168C1793.37 168 1788 173.373 1788 180C1788 186.627 1793.37 192 1800 192Z" fill="white"/>
<path fill-rule="evenodd" clip-rule="evenodd" d="M1688 192C1694.63 192 1700 186.627 1700 180C1700 173.373 1694.63 168 1688 168C1681.37 168 1676 173.373 1676 180C1676 186.627 1681.37 192 1688 192Z" fill="white"/>
<path fill-rule="evenodd" clip-rule="evenodd" d="M1576 192C1582.63 192 1588 186.627 1588 180C1588 173.373 1582.63 168 1576 168C1569.37 168 1564 173.373 1564 180C1564 186.627 1569.37 192 1576 192Z" fill="white"/>
<path fill-rule="evenodd" clip-rule="evenodd" d="M1464 192C1470.63 192 1476 186.627 1476 180C1476 173.373 1470.63 168 1464 168C1457.37 168 1452 173.373 1452 180C1452 186.627 1457.37 192 1464 192Z" fill="white"/>
<path fill-rule="evenodd" clip-rule="evenodd" d="M1352 192C1358.63 192 1364 186.627 1364 180C1364 173.373 1358.63 168 1352 168C1345.37 168 1340 173.373 1340 180C1340 186.627 1345.37 192 1352 192Z" fill="white"/>
<path fill-rule="evenodd" clip-rule="evenodd" d="M1240 192C1246.63 192 1252 186.627 1252 180C1252 173.373 1246.63 168 1240 168C1233.37 168 1228 173.373 1228 180C1228 186.627 1233.37 192 1240 192Z" fill="white"/>
<path fill-rule="evenodd" clip-rule="evenodd" d="M1128 192C1134.63 192 1140 186.627 1140 180C1140 173.373 1134.63 168 1128 168C1121.37 168 1116 173.373 1116 180C1116 186.627 1121.37 192 1128 192Z" fill="white"/>
<path fill-rule="evenodd" clip-rule="evenodd" d="M1016 192C1022.63 192 1028 186.627 1028 180C1028 173.373 1022.63 168 1016 168C1009.37 168 1004 173.373 1004 180C1004 186.627 1009.37 192 1016 192Z" fill="white"/>
<path fill-rule="evenodd" clip-rule="evenodd" d="M1968 248C1974.63 248 1980 242.627 1980 236C1980 229.373 1974.63 224 1968 224C1961.37 224 1956 229.373 1956 236C1956 242.627 1961.37 248 1968 248Z" fill="white"/>
<path fill-rule="evenodd" clip-rule="evenodd" d="M1856 248C1862.63 248 1868 242.627 1868 236C1868 229.373 1862.63 224 1856 224C1849.37 224 1844 229.373 1844 236C1844 242.627 1849.37 248 1856 248Z" fill="white"/>
<path fill-rule="evenodd" clip-rule="evenodd" d="M1744 248C1750.63 248 1756 242.627 1756 236C1756 229.373 1750.63 224 1744 224C1737.37 224 1732 229.373 1732 236C1732 242.627 1737.37 248 1744 248Z" fill="white"/>
<path fill-rule="evenodd" clip-rule="evenodd" d="M1632 248C1638.63 248 1644 242.627 1644 236C1644 229.373 1638.63 224 1632 224C1625.37 224 1620 229.373 1620 236C1620 242.627 1625.37 248 1632 248Z" fill="white"/>
<path fill-rule="evenodd" clip-rule="evenodd" d="M1520 248C1526.63 248 1532 242.627 1532 236C1532 229.373 1526.63 224 1520 224C1513.37 224 1508 229.373 1508 236C1508 242.627 1513.37 248 1520 248Z" fill="white"/>
<path d="M1417.5 236C1417.5 241.247 1413.25 245.5 1408 245.5C1402.75 245.5 1398.5 241.247 1398.5 236C1398.5 230.753 1402.75 226.5 1408 226.5C1413.25 226.5 1417.5 230.753 1417.5 236Z" stroke="white" stroke-width="5"/>
<path fill-rule="evenodd" clip-rule="evenodd" d="M1296 248C1302.63 248 1308 242.627 1308 236C1308 229.373 1302.63 224 1296 224C1289.37 224 1284 229.373 1284 236C1284 242.627 1289.37 248 1296 248Z" fill="white"/>
<path fill-rule="evenodd" clip-rule="evenodd" d="M1184 248C1190.63 248 1196 242.627 1196 236C1196 229.373 1190.63 224 1184 224C1177.37 224 1172 229.373 1172 236C1172 242.627 1177.37 248 1184 248Z" fill="white"/>
<path fill-rule="evenodd" clip-rule="evenodd" d="M1072 248C1078.63 248 1084 242.627 1084 236C1084 229.373 1078.63 224 1072 224C1065.37 224 1060 229.373 1060 236C1060 242.627 1065.37 248 1072 248Z" fill="white"/>
<path fill-rule="evenodd" clip-rule="evenodd" d="M1912 248C1918.63 248 1924 242.627 1924 236C1924 229.373 1918.63 224 1912 224C1905.37 224 1900 229.373 1900 236C1900 242.627 1905.37 248 1912 248Z" fill="white"/>
<path fill-rule="evenodd" clip-rule="evenodd" d="M1800 248C1806.63 248 1812 242.627 1812 236C1812 229.373 1806.63 224 1800 224C1793.37 224 1788 229.373 1788 236C1788 242.627 1793.37 248 1800 248Z" fill="white"/>
<path fill-rule="evenodd" clip-rule="evenodd" d="M1688 248C1694.63 248 1700 242.627 1700 236C1700 229.373 1694.63 224 1688 224C1681.37 224 1676 229.373 1676 236C1676 242.627 1681.37 248 1688 248Z" fill="white"/>
<path fill-rule="evenodd" clip-rule="evenodd" d="M1576 248C1582.63 248 1588 242.627 1588 236C1588 229.373 1582.63 224 1576 224C1569.37 224 1564 229.373 1564 236C1564 242.627 1569.37 248 1576 248Z" fill="white"/>
<path fill-rule="evenodd" clip-rule="evenodd" d="M1464 248C1470.63 248 1476 242.627 1476 236C1476 229.373 1470.63 224 1464 224C1457.37 224 1452 229.373 1452 236C1452 242.627 1457.37 248 1464 248Z" fill="white"/>
<path fill-rule="evenodd" clip-rule="evenodd" d="M1352 248C1358.63 248 1364 242.627 1364 236C1364 229.373 1358.63 224 1352 224C1345.37 224 1340 229.373 1340 236C1340 242.627 1345.37 248 1352 248Z" fill="white"/>
<path fill-rule="evenodd" clip-rule="evenodd" d="M1240 248C1246.63 248 1252 242.627 1252 236C1252 229.373 1246.63 224 1240 224C1233.37 224 1228 229.373 1228 236C1228 242.627 1233.37 248 1240 248Z" fill="white"/>
<path fill-rule="evenodd" clip-rule="evenodd" d="M1128 248C1134.63 248 1140 242.627 1140 236C1140 229.373 1134.63 224 1128 224C1121.37 224 1116 229.373 1116 236C1116 242.627 1121.37 248 1128 248Z" fill="white"/>
<path fill-rule="evenodd" clip-rule="evenodd" d="M1016 248C1022.63 248 1028 242.627 1028 236C1028 229.373 1022.63 224 1016 224C1009.37 224 1004 229.373 1004 236C1004 242.627 1009.37 248 1016 248Z" fill="white"/>
<path fill-rule="evenodd" clip-rule="evenodd" d="M1968 24C1974.63 24 1980 18.6274 1980 12C1980 5.37258 1974.63 0 1968 0C1961.37 0 1956 5.37258 1956 12C1956 18.6274 1961.37 24 1968 24Z" fill="white"/>
<path fill-rule="evenodd" clip-rule="evenodd" d="M1856 24C1862.63 24 1868 18.6274 1868 12C1868 5.37258 1862.63 0 1856 0C1849.37 0 1844 5.37258 1844 12C1844 18.6274 1849.37 24 1856 24Z" fill="white"/>
<path fill-rule="evenodd" clip-rule="evenodd" d="M1744 24C1750.63 24 1756 18.6274 1756 12C1756 5.37258 1750.63 0 1744 0C1737.37 0 1732 5.37258 1732 12C1732 18.6274 1737.37 24 1744 24Z" fill="white"/>
<path fill-rule="evenodd" clip-rule="evenodd" d="M1632 24C1638.63 24 1644 18.6274 1644 12C1644 5.37258 1638.63 0 1632 0C1625.37 0 1620 5.37258 1620 12C1620 18.6274 1625.37 24 1632 24Z" fill="white"/>
<path fill-rule="evenodd" clip-rule="evenodd" d="M1520 24C1526.63 24 1532 18.6274 1532 12C1532 5.37258 1526.63 0 1520 0C1513.37 0 1508 5.37258 1508 12C1508 18.6274 1513.37 24 1520 24Z" fill="white"/>
<path fill-rule="evenodd" clip-rule="evenodd" d="M1408 24C1414.63 24 1420 18.6274 1420 12C1420 5.37258 1414.63 0 1408 0C1401.37 0 1396 5.37258 1396 12C1396 18.6274 1401.37 24 1408 24Z" fill="white"/>
<path fill-rule="evenodd" clip-rule="evenodd" d="M1296 24C1302.63 24 1308 18.6274 1308 12C1308 5.37258 1302.63 0 1296 0C1289.37 0 1284 5.37258 1284 12C1284 18.6274 1289.37 24 1296 24Z" fill="white"/>
<path fill-rule="evenodd" clip-rule="evenodd" d="M1184 24C1190.63 24 1196 18.6274 1196 12C1196 5.37258 1190.63 0 1184 0C1177.37 0 1172 5.37258 1172 12C1172 18.6274 1177.37 24 1184 24Z" fill="white"/>
<path fill-rule="evenodd" clip-rule="evenodd" d="M1072 24C1078.63 24 1084 18.6274 1084 12C1084 5.37258 1078.63 0 1072 0C1065.37 0 1060 5.37258 1060 12C1060 18.6274 1065.37 24 1072 24Z" fill="white"/>
<path fill-rule="evenodd" clip-rule="evenodd" d="M1912 24C1918.63 24 1924 18.6274 1924 12C1924 5.37258 1918.63 0 1912 0C1905.37 0 1900 5.37258 1900 12C1900 18.6274 1905.37 24 1912 24Z" fill="white"/>
<path fill-rule="evenodd" clip-rule="evenodd" d="M1800 24C1806.63 24 1812 18.6274 1812 12C1812 5.37258 1806.63 0 1800 0C1793.37 0 1788 5.37258 1788 12C1788 18.6274 1793.37 24 1800 24Z" fill="white"/>
<path fill-rule="evenodd" clip-rule="evenodd" d="M1688 24C1694.63 24 1700 18.6274 1700 12C1700 5.37258 1694.63 0 1688 0C1681.37 0 1676 5.37258 1676 12C1676 18.6274 1681.37 24 1688 24Z" fill="white"/>
<path fill-rule="evenodd" clip-rule="evenodd" d="M1576 24C1582.63 24 1588 18.6274 1588 12C1588 5.37258 1582.63 0 1576 0C1569.37 0 1564 5.37258 1564 12C1564 18.6274 1569.37 24 1576 24Z" fill="white"/>
<path fill-rule="evenodd" clip-rule="evenodd" d="M1464 24C1470.63 24 1476 18.6274 1476 12C1476 5.37258 1470.63 0 1464 0C1457.37 0 1452 5.37258 1452 12C1452 18.6274 1457.37 24 1464 24Z" fill="white"/>
<path fill-rule="evenodd" clip-rule="evenodd" d="M1352 24C1358.63 24 1364 18.6274 1364 12C1364 5.37258 1358.63 0 1352 0C1345.37 0 1340 5.37258 1340 12C1340 18.6274 1345.37 24 1352 24Z" fill="white"/>
<path fill-rule="evenodd" clip-rule="evenodd" d="M1240 24C1246.63 24 1252 18.6274 1252 12C1252 5.37258 1246.63 0 1240 0C1233.37 0 1228 5.37258 1228 12C1228 18.6274 1233.37 24 1240 24Z" fill="white"/>
<path fill-rule="evenodd" clip-rule="evenodd" d="M1128 24C1134.63 24 1140 18.6274 1140 12C1140 5.37258 1134.63 0 1128 0C1121.37 0 1116 5.37258 1116 12C1116 18.6274 1121.37 24 1128 24Z" fill="white"/>
<path fill-rule="evenodd" clip-rule="evenodd" d="M1016 24C1022.63 24 1028 18.6274 1028 12C1028 5.37258 1022.63 0 1016 0C1009.37 0 1004 5.37258 1004 12C1004 18.6274 1009.37 24 1016 24Z" fill="white"/>
<path fill-rule="evenodd" clip-rule="evenodd" d="M2972 80C2978.63 80 2984 74.6274 2984 68C2984 61.3726 2978.63 56 2972 56C2965.37 56 2960 61.3726 2960 68C2960 74.6274 2965.37 80 2972 80Z" fill="white"/>
<path fill-rule="evenodd" clip-rule="evenodd" d="M2860 80C2866.63 80 2872 74.6274 2872 68C2872 61.3726 2866.63 56 2860 56C2853.37 56 2848 61.3726 2848 68C2848 74.6274 2853.37 80 2860 80Z" fill="white"/>
<path fill-rule="evenodd" clip-rule="evenodd" d="M2748 80C2754.63 80 2760 74.6274 2760 68C2760 61.3726 2754.63 56 2748 56C2741.37 56 2736 61.3726 2736 68C2736 74.6274 2741.37 80 2748 80Z" fill="white"/>
<path fill-rule="evenodd" clip-rule="evenodd" d="M2636 80C2642.63 80 2648 74.6274 2648 68C2648 61.3726 2642.63 56 2636 56C2629.37 56 2624 61.3726 2624 68C2624 74.6274 2629.37 80 2636 80Z" fill="white"/>
<path fill-rule="evenodd" clip-rule="evenodd" d="M2524 80C2530.63 80 2536 74.6274 2536 68C2536 61.3726 2530.63 56 2524 56C2517.37 56 2512 61.3726 2512 68C2512 74.6274 2517.37 80 2524 80Z" fill="white"/>
<path fill-rule="evenodd" clip-rule="evenodd" d="M2412 80C2418.63 80 2424 74.6274 2424 68C2424 61.3726 2418.63 56 2412 56C2405.37 56 2400 61.3726 2400 68C2400 74.6274 2405.37 80 2412 80Z" fill="white"/>
<path fill-rule="evenodd" clip-rule="evenodd" d="M2300 80C2306.63 80 2312 74.6274 2312 68C2312 61.3726 2306.63 56 2300 56C2293.37 56 2288 61.3726 2288 68C2288 74.6274 2293.37 80 2300 80Z" fill="white"/>
<path fill-rule="evenodd" clip-rule="evenodd" d="M2188 80C2194.63 80 2200 74.6274 2200 68C2200 61.3726 2194.63 56 2188 56C2181.37 56 2176 61.3726 2176 68C2176 74.6274 2181.37 80 2188 80Z" fill="white"/>
<path fill-rule="evenodd" clip-rule="evenodd" d="M2076 80C2082.63 80 2088 74.6274 2088 68C2088 61.3726 2082.63 56 2076 56C2069.37 56 2064 61.3726 2064 68C2064 74.6274 2069.37 80 2076 80Z" fill="white"/>
<path fill-rule="evenodd" clip-rule="evenodd" d="M2916 80C2922.63 80 2928 74.6274 2928 68C2928 61.3726 2922.63 56 2916 56C2909.37 56 2904 61.3726 2904 68C2904 74.6274 2909.37 80 2916 80Z" fill="white"/>
<path fill-rule="evenodd" clip-rule="evenodd" d="M2804 80C2810.63 80 2816 74.6274 2816 68C2816 61.3726 2810.63 56 2804 56C2797.37 56 2792 61.3726 2792 68C2792 74.6274 2797.37 80 2804 80Z" fill="white"/>
<path fill-rule="evenodd" clip-rule="evenodd" d="M2692 80C2698.63 80 2704 74.6274 2704 68C2704 61.3726 2698.63 56 2692 56C2685.37 56 2680 61.3726 2680 68C2680 74.6274 2685.37 80 2692 80Z" fill="white"/>
<path fill-rule="evenodd" clip-rule="evenodd" d="M2580 80C2586.63 80 2592 74.6274 2592 68C2592 61.3726 2586.63 56 2580 56C2573.37 56 2568 61.3726 2568 68C2568 74.6274 2573.37 80 2580 80Z" fill="white"/>
<path fill-rule="evenodd" clip-rule="evenodd" d="M2468 80C2474.63 80 2480 74.6274 2480 68C2480 61.3726 2474.63 56 2468 56C2461.37 56 2456 61.3726 2456 68C2456 74.6274 2461.37 80 2468 80Z" fill="white"/>
<path fill-rule="evenodd" clip-rule="evenodd" d="M2356 80C2362.63 80 2368 74.6274 2368 68C2368 61.3726 2362.63 56 2356 56C2349.37 56 2344 61.3726 2344 68C2344 74.6274 2349.37 80 2356 80Z" fill="white"/>
<path fill-rule="evenodd" clip-rule="evenodd" d="M2244 80C2250.63 80 2256 74.6274 2256 68C2256 61.3726 2250.63 56 2244 56C2237.37 56 2232 61.3726 2232 68C2232 74.6274 2237.37 80 2244 80Z" fill="white"/>
<path fill-rule="evenodd" clip-rule="evenodd" d="M2132 80C2138.63 80 2144 74.6274 2144 68C2144 61.3726 2138.63 56 2132 56C2125.37 56 2120 61.3726 2120 68C2120 74.6274 2125.37 80 2132 80Z" fill="white"/>
<path fill-rule="evenodd" clip-rule="evenodd" d="M2020 80C2026.63 80 2032 74.6274 2032 68C2032 61.3726 2026.63 56 2020 56C2013.37 56 2008 61.3726 2008 68C2008 74.6274 2013.37 80 2020 80Z" fill="white"/>
<path fill-rule="evenodd" clip-rule="evenodd" d="M2972 136C2978.63 136 2984 130.627 2984 124C2984 117.373 2978.63 112 2972 112C2965.37 112 2960 117.373 2960 124C2960 130.627 2965.37 136 2972 136Z" fill="white"/>
<path fill-rule="evenodd" clip-rule="evenodd" d="M2860 136C2866.63 136 2872 130.627 2872 124C2872 117.373 2866.63 112 2860 112C2853.37 112 2848 117.373 2848 124C2848 130.627 2853.37 136 2860 136Z" fill="white"/>
<path fill-rule="evenodd" clip-rule="evenodd" d="M2748 136C2754.63 136 2760 130.627 2760 124C2760 117.373 2754.63 112 2748 112C2741.37 112 2736 117.373 2736 124C2736 130.627 2741.37 136 2748 136Z" fill="white"/>
<path fill-rule="evenodd" clip-rule="evenodd" d="M2636 136C2642.63 136 2648 130.627 2648 124C2648 117.373 2642.63 112 2636 112C2629.37 112 2624 117.373 2624 124C2624 130.627 2629.37 136 2636 136Z" fill="white"/>
<path fill-rule="evenodd" clip-rule="evenodd" d="M2524 136C2530.63 136 2536 130.627 2536 124C2536 117.373 2530.63 112 2524 112C2517.37 112 2512 117.373 2512 124C2512 130.627 2517.37 136 2524 136Z" fill="white"/>
<path fill-rule="evenodd" clip-rule="evenodd" d="M2412 136C2418.63 136 2424 130.627 2424 124C2424 117.373 2418.63 112 2412 112C2405.37 112 2400 117.373 2400 124C2400 130.627 2405.37 136 2412 136Z" fill="white"/>
<path fill-rule="evenodd" clip-rule="evenodd" d="M2300 136C2306.63 136 2312 130.627 2312 124C2312 117.373 2306.63 112 2300 112C2293.37 112 2288 117.373 2288 124C2288 130.627 2293.37 136 2300 136Z" fill="white"/>
<path fill-rule="evenodd" clip-rule="evenodd" d="M2188 136C2194.63 136 2200 130.627 2200 124C2200 117.373 2194.63 112 2188 112C2181.37 112 2176 117.373 2176 124C2176 130.627 2181.37 136 2188 136Z" fill="white"/>
<path fill-rule="evenodd" clip-rule="evenodd" d="M2076 136C2082.63 136 2088 130.627 2088 124C2088 117.373 2082.63 112 2076 112C2069.37 112 2064 117.373 2064 124C2064 130.627 2069.37 136 2076 136Z" fill="white"/>
<path fill-rule="evenodd" clip-rule="evenodd" d="M2916 136C2922.63 136 2928 130.627 2928 124C2928 117.373 2922.63 112 2916 112C2909.37 112 2904 117.373 2904 124C2904 130.627 2909.37 136 2916 136Z" fill="white"/>
<path fill-rule="evenodd" clip-rule="evenodd" d="M2804 136C2810.63 136 2816 130.627 2816 124C2816 117.373 2810.63 112 2804 112C2797.37 112 2792 117.373 2792 124C2792 130.627 2797.37 136 2804 136Z" fill="white"/>
<path fill-rule="evenodd" clip-rule="evenodd" d="M2692 136C2698.63 136 2704 130.627 2704 124C2704 117.373 2698.63 112 2692 112C2685.37 112 2680 117.373 2680 124C2680 130.627 2685.37 136 2692 136Z" fill="white"/>
<path fill-rule="evenodd" clip-rule="evenodd" d="M2580 136C2586.63 136 2592 130.627 2592 124C2592 117.373 2586.63 112 2580 112C2573.37 112 2568 117.373 2568 124C2568 130.627 2573.37 136 2580 136Z" fill="white"/>
<path fill-rule="evenodd" clip-rule="evenodd" d="M2468 136C2474.63 136 2480 130.627 2480 124C2480 117.373 2474.63 112 2468 112C2461.37 112 2456 117.373 2456 124C2456 130.627 2461.37 136 2468 136Z" fill="white"/>
<path fill-rule="evenodd" clip-rule="evenodd" d="M2356 136C2362.63 136 2368 130.627 2368 124C2368 117.373 2362.63 112 2356 112C2349.37 112 2344 117.373 2344 124C2344 130.627 2349.37 136 2356 136Z" fill="white"/>
<path fill-rule="evenodd" clip-rule="evenodd" d="M2244 136C2250.63 136 2256 130.627 2256 124C2256 117.373 2250.63 112 2244 112C2237.37 112 2232 117.373 2232 124C2232 130.627 2237.37 136 2244 136Z" fill="white"/>
<path fill-rule="evenodd" clip-rule="evenodd" d="M2132 136C2138.63 136 2144 130.627 2144 124C2144 117.373 2138.63 112 2132 112C2125.37 112 2120 117.373 2120 124C2120 130.627 2125.37 136 2132 136Z" fill="white"/>
<path fill-rule="evenodd" clip-rule="evenodd" d="M2020 136C2026.63 136 2032 130.627 2032 124C2032 117.373 2026.63 112 2020 112C2013.37 112 2008 117.373 2008 124C2008 130.627 2013.37 136 2020 136Z" fill="white"/>
<path fill-rule="evenodd" clip-rule="evenodd" d="M2972 192C2978.63 192 2984 186.627 2984 180C2984 173.373 2978.63 168 2972 168C2965.37 168 2960 173.373 2960 180C2960 186.627 2965.37 192 2972 192Z" fill="white"/>
<path fill-rule="evenodd" clip-rule="evenodd" d="M2860 192C2866.63 192 2872 186.627 2872 180C2872 173.373 2866.63 168 2860 168C2853.37 168 2848 173.373 2848 180C2848 186.627 2853.37 192 2860 192Z" fill="white"/>
<path fill-rule="evenodd" clip-rule="evenodd" d="M2748 192C2754.63 192 2760 186.627 2760 180C2760 173.373 2754.63 168 2748 168C2741.37 168 2736 173.373 2736 180C2736 186.627 2741.37 192 2748 192Z" fill="white"/>
<path fill-rule="evenodd" clip-rule="evenodd" d="M2636 192C2642.63 192 2648 186.627 2648 180C2648 173.373 2642.63 168 2636 168C2629.37 168 2624 173.373 2624 180C2624 186.627 2629.37 192 2636 192Z" fill="white"/>
<path fill-rule="evenodd" clip-rule="evenodd" d="M2524 192C2530.63 192 2536 186.627 2536 180C2536 173.373 2530.63 168 2524 168C2517.37 168 2512 173.373 2512 180C2512 186.627 2517.37 192 2524 192Z" fill="white"/>
<path fill-rule="evenodd" clip-rule="evenodd" d="M2412 192C2418.63 192 2424 186.627 2424 180C2424 173.373 2418.63 168 2412 168C2405.37 168 2400 173.373 2400 180C2400 186.627 2405.37 192 2412 192Z" fill="white"/>
<path fill-rule="evenodd" clip-rule="evenodd" d="M2300 192C2306.63 192 2312 186.627 2312 180C2312 173.373 2306.63 168 2300 168C2293.37 168 2288 173.373 2288 180C2288 186.627 2293.37 192 2300 192Z" fill="white"/>
<path fill-rule="evenodd" clip-rule="evenodd" d="M2188 192C2194.63 192 2200 186.627 2200 180C2200 173.373 2194.63 168 2188 168C2181.37 168 2176 173.373 2176 180C2176 186.627 2181.37 192 2188 192Z" fill="white"/>
<path fill-rule="evenodd" clip-rule="evenodd" d="M2076 192C2082.63 192 2088 186.627 2088 180C2088 173.373 2082.63 168 2076 168C2069.37 168 2064 173.373 2064 180C2064 186.627 2069.37 192 2076 192Z" fill="white"/>
<path fill-rule="evenodd" clip-rule="evenodd" d="M2916 192C2922.63 192 2928 186.627 2928 180C2928 173.373 2922.63 168 2916 168C2909.37 168 2904 173.373 2904 180C2904 186.627 2909.37 192 2916 192Z" fill="white"/>
<path fill-rule="evenodd" clip-rule="evenodd" d="M2804 192C2810.63 192 2816 186.627 2816 180C2816 173.373 2810.63 168 2804 168C2797.37 168 2792 173.373 2792 180C2792 186.627 2797.37 192 2804 192Z" fill="white"/>
<path fill-rule="evenodd" clip-rule="evenodd" d="M2692 192C2698.63 192 2704 186.627 2704 180C2704 173.373 2698.63 168 2692 168C2685.37 168 2680 173.373 2680 180C2680 186.627 2685.37 192 2692 192Z" fill="white"/>
<path fill-rule="evenodd" clip-rule="evenodd" d="M2580 192C2586.63 192 2592 186.627 2592 180C2592 173.373 2586.63 168 2580 168C2573.37 168 2568 173.373 2568 180C2568 186.627 2573.37 192 2580 192Z" fill="white"/>
<path fill-rule="evenodd" clip-rule="evenodd" d="M2468 192C2474.63 192 2480 186.627 2480 180C2480 173.373 2474.63 168 2468 168C2461.37 168 2456 173.373 2456 180C2456 186.627 2461.37 192 2468 192Z" fill="white"/>
<path fill-rule="evenodd" clip-rule="evenodd" d="M2356 192C2362.63 192 2368 186.627 2368 180C2368 173.373 2362.63 168 2356 168C2349.37 168 2344 173.373 2344 180C2344 186.627 2349.37 192 2356 192Z" fill="white"/>
<path fill-rule="evenodd" clip-rule="evenodd" d="M2244 192C2250.63 192 2256 186.627 2256 180C2256 173.373 2250.63 168 2244 168C2237.37 168 2232 173.373 2232 180C2232 186.627 2237.37 192 2244 192Z" fill="white"/>
<path fill-rule="evenodd" clip-rule="evenodd" d="M2132 192C2138.63 192 2144 186.627 2144 180C2144 173.373 2138.63 168 2132 168C2125.37 168 2120 173.373 2120 180C2120 186.627 2125.37 192 2132 192Z" fill="white"/>
<path fill-rule="evenodd" clip-rule="evenodd" d="M2020 192C2026.63 192 2032 186.627 2032 180C2032 173.373 2026.63 168 2020 168C2013.37 168 2008 173.373 2008 180C2008 186.627 2013.37 192 2020 192Z" fill="white"/>
<path fill-rule="evenodd" clip-rule="evenodd" d="M2972 248C2978.63 248 2984 242.627 2984 236C2984 229.373 2978.63 224 2972 224C2965.37 224 2960 229.373 2960 236C2960 242.627 2965.37 248 2972 248Z" fill="white"/>
<path fill-rule="evenodd" clip-rule="evenodd" d="M2860 248C2866.63 248 2872 242.627 2872 236C2872 229.373 2866.63 224 2860 224C2853.37 224 2848 229.373 2848 236C2848 242.627 2853.37 248 2860 248Z" fill="white"/>
<path fill-rule="evenodd" clip-rule="evenodd" d="M2748 248C2754.63 248 2760 242.627 2760 236C2760 229.373 2754.63 224 2748 224C2741.37 224 2736 229.373 2736 236C2736 242.627 2741.37 248 2748 248Z" fill="white"/>
<path fill-rule="evenodd" clip-rule="evenodd" d="M2636 248C2642.63 248 2648 242.627 2648 236C2648 229.373 2642.63 224 2636 224C2629.37 224 2624 229.373 2624 236C2624 242.627 2629.37 248 2636 248Z" fill="white"/>
<path fill-rule="evenodd" clip-rule="evenodd" d="M2524 248C2530.63 248 2536 242.627 2536 236C2536 229.373 2530.63 224 2524 224C2517.37 224 2512 229.373 2512 236C2512 242.627 2517.37 248 2524 248Z" fill="white"/>
<path d="M2421.5 236C2421.5 241.247 2417.25 245.5 2412 245.5C2406.75 245.5 2402.5 241.247 2402.5 236C2402.5 230.753 2406.75 226.5 2412 226.5C2417.25 226.5 2421.5 230.753 2421.5 236Z" stroke="white" stroke-width="5"/>
<path fill-rule="evenodd" clip-rule="evenodd" d="M2300 248C2306.63 248 2312 242.627 2312 236C2312 229.373 2306.63 224 2300 224C2293.37 224 2288 229.373 2288 236C2288 242.627 2293.37 248 2300 248Z" fill="white"/>
<path fill-rule="evenodd" clip-rule="evenodd" d="M2188 248C2194.63 248 2200 242.627 2200 236C2200 229.373 2194.63 224 2188 224C2181.37 224 2176 229.373 2176 236C2176 242.627 2181.37 248 2188 248Z" fill="white"/>
<path fill-rule="evenodd" clip-rule="evenodd" d="M2076 248C2082.63 248 2088 242.627 2088 236C2088 229.373 2082.63 224 2076 224C2069.37 224 2064 229.373 2064 236C2064 242.627 2069.37 248 2076 248Z" fill="white"/>
<path fill-rule="evenodd" clip-rule="evenodd" d="M2916 248C2922.63 248 2928 242.627 2928 236C2928 229.373 2922.63 224 2916 224C2909.37 224 2904 229.373 2904 236C2904 242.627 2909.37 248 2916 248Z" fill="white"/>
<path fill-rule="evenodd" clip-rule="evenodd" d="M2804 248C2810.63 248 2816 242.627 2816 236C2816 229.373 2810.63 224 2804 224C2797.37 224 2792 229.373 2792 236C2792 242.627 2797.37 248 2804 248Z" fill="white"/>
<path fill-rule="evenodd" clip-rule="evenodd" d="M2692 248C2698.63 248 2704 242.627 2704 236C2704 229.373 2698.63 224 2692 224C2685.37 224 2680 229.373 2680 236C2680 242.627 2685.37 248 2692 248Z" fill="white"/>
<path fill-rule="evenodd" clip-rule="evenodd" d="M2580 248C2586.63 248 2592 242.627 2592 236C2592 229.373 2586.63 224 2580 224C2573.37 224 2568 229.373 2568 236C2568 242.627 2573.37 248 2580 248Z" fill="white"/>
<path fill-rule="evenodd" clip-rule="evenodd" d="M2468 248C2474.63 248 2480 242.627 2480 236C2480 229.373 2474.63 224 2468 224C2461.37 224 2456 229.373 2456 236C2456 242.627 2461.37 248 2468 248Z" fill="white"/>
<path fill-rule="evenodd" clip-rule="evenodd" d="M2356 248C2362.63 248 2368 242.627 2368 236C2368 229.373 2362.63 224 2356 224C2349.37 224 2344 229.373 2344 236C2344 242.627 2349.37 248 2356 248Z" fill="white"/>
<path fill-rule="evenodd" clip-rule="evenodd" d="M2244 248C2250.63 248 2256 242.627 2256 236C2256 229.373 2250.63 224 2244 224C2237.37 224 2232 229.373 2232 236C2232 242.627 2237.37 248 2244 248Z" fill="white"/>
<path fill-rule="evenodd" clip-rule="evenodd" d="M2132 248C2138.63 248 2144 242.627 2144 236C2144 229.373 2138.63 224 2132 224C2125.37 224 2120 229.373 2120 236C2120 242.627 2125.37 248 2132 248Z" fill="white"/>
<path fill-rule="evenodd" clip-rule="evenodd" d="M2020 248C2026.63 248 2032 242.627 2032 236C2032 229.373 2026.63 224 2020 224C2013.37 224 2008 229.373 2008 236C2008 242.627 2013.37 248 2020 248Z" fill="white"/>
<path fill-rule="evenodd" clip-rule="evenodd" d="M2972 24C2978.63 24 2984 18.6274 2984 12C2984 5.37258 2978.63 0 2972 0C2965.37 0 2960 5.37258 2960 12C2960 18.6274 2965.37 24 2972 24Z" fill="white"/>
<path fill-rule="evenodd" clip-rule="evenodd" d="M2860 24C2866.63 24 2872 18.6274 2872 12C2872 5.37258 2866.63 0 2860 0C2853.37 0 2848 5.37258 2848 12C2848 18.6274 2853.37 24 2860 24Z" fill="white"/>
<path fill-rule="evenodd" clip-rule="evenodd" d="M2748 24C2754.63 24 2760 18.6274 2760 12C2760 5.37258 2754.63 0 2748 0C2741.37 0 2736 5.37258 2736 12C2736 18.6274 2741.37 24 2748 24Z" fill="white"/>
<path fill-rule="evenodd" clip-rule="evenodd" d="M2636 24C2642.63 24 2648 18.6274 2648 12C2648 5.37258 2642.63 0 2636 0C2629.37 0 2624 5.37258 2624 12C2624 18.6274 2629.37 24 2636 24Z" fill="white"/>
<path fill-rule="evenodd" clip-rule="evenodd" d="M2524 24C2530.63 24 2536 18.6274 2536 12C2536 5.37258 2530.63 0 2524 0C2517.37 0 2512 5.37258 2512 12C2512 18.6274 2517.37 24 2524 24Z" fill="white"/>
<path fill-rule="evenodd" clip-rule="evenodd" d="M2412 24C2418.63 24 2424 18.6274 2424 12C2424 5.37258 2418.63 0 2412 0C2405.37 0 2400 5.37258 2400 12C2400 18.6274 2405.37 24 2412 24Z" fill="white"/>
<path fill-rule="evenodd" clip-rule="evenodd" d="M2300 24C2306.63 24 2312 18.6274 2312 12C2312 5.37258 2306.63 0 2300 0C2293.37 0 2288 5.37258 2288 12C2288 18.6274 2293.37 24 2300 24Z" fill="white"/>
<path fill-rule="evenodd" clip-rule="evenodd" d="M2188 24C2194.63 24 2200 18.6274 2200 12C2200 5.37258 2194.63 0 2188 0C2181.37 0 2176 5.37258 2176 12C2176 18.6274 2181.37 24 2188 24Z" fill="white"/>
<path fill-rule="evenodd" clip-rule="evenodd" d="M2076 24C2082.63 24 2088 18.6274 2088 12C2088 5.37258 2082.63 0 2076 0C2069.37 0 2064 5.37258 2064 12C2064 18.6274 2069.37 24 2076 24Z" fill="white"/>
<path fill-rule="evenodd" clip-rule="evenodd" d="M2916 24C2922.63 24 2928 18.6274 2928 12C2928 5.37258 2922.63 0 2916 0C2909.37 0 2904 5.37258 2904 12C2904 18.6274 2909.37 24 2916 24Z" fill="white"/>
<path fill-rule="evenodd" clip-rule="evenodd" d="M2804 24C2810.63 24 2816 18.6274 2816 12C2816 5.37258 2810.63 0 2804 0C2797.37 0 2792 5.37258 2792 12C2792 18.6274 2797.37 24 2804 24Z" fill="white"/>
<path fill-rule="evenodd" clip-rule="evenodd" d="M2692 24C2698.63 24 2704 18.6274 2704 12C2704 5.37258 2698.63 0 2692 0C2685.37 0 2680 5.37258 2680 12C2680 18.6274 2685.37 24 2692 24Z" fill="white"/>
<path fill-rule="evenodd" clip-rule="evenodd" d="M2580 24C2586.63 24 2592 18.6274 2592 12C2592 5.37258 2586.63 0 2580 0C2573.37 0 2568 5.37258 2568 12C2568 18.6274 2573.37 24 2580 24Z" fill="white"/>
<path fill-rule="evenodd" clip-rule="evenodd" d="M2468 24C2474.63 24 2480 18.6274 2480 12C2480 5.37258 2474.63 0 2468 0C2461.37 0 2456 5.37258 2456 12C2456 18.6274 2461.37 24 2468 24Z" fill="white"/>
<path fill-rule="evenodd" clip-rule="evenodd" d="M2356 24C2362.63 24 2368 18.6274 2368 12C2368 5.37258 2362.63 0 2356 0C2349.37 0 2344 5.37258 2344 12C2344 18.6274 2349.37 24 2356 24Z" fill="white"/>
<path fill-rule="evenodd" clip-rule="evenodd" d="M2244 24C2250.63 24 2256 18.6274 2256 12C2256 5.37258 2250.63 0 2244 0C2237.37 0 2232 5.37258 2232 12C2232 18.6274 2237.37 24 2244 24Z" fill="white"/>
<path fill-rule="evenodd" clip-rule="evenodd" d="M2132 24C2138.63 24 2144 18.6274 2144 12C2144 5.37258 2138.63 0 2132 0C2125.37 0 2120 5.37258 2120 12C2120 18.6274 2125.37 24 2132 24Z" fill="white"/>
<path fill-rule="evenodd" clip-rule="evenodd" d="M2020 24C2026.63 24 2032 18.6274 2032 12C2032 5.37258 2026.63 0 2020 0C2013.37 0 2008 5.37258 2008 12C2008 18.6274 2013.37 24 2020 24Z" fill="white"/>
<path fill-rule="evenodd" clip-rule="evenodd" d="M3976 80C3982.63 80 3988 74.6274 3988 68C3988 61.3726 3982.63 56 3976 56C3969.37 56 3964 61.3726 3964 68C3964 74.6274 3969.37 80 3976 80Z" fill="white"/>
<path fill-rule="evenodd" clip-rule="evenodd" d="M3864 80C3870.63 80 3876 74.6274 3876 68C3876 61.3726 3870.63 56 3864 56C3857.37 56 3852 61.3726 3852 68C3852 74.6274 3857.37 80 3864 80Z" fill="white"/>
<path fill-rule="evenodd" clip-rule="evenodd" d="M3752 80C3758.63 80 3764 74.6274 3764 68C3764 61.3726 3758.63 56 3752 56C3745.37 56 3740 61.3726 3740 68C3740 74.6274 3745.37 80 3752 80Z" fill="white"/>
<path fill-rule="evenodd" clip-rule="evenodd" d="M3640 80C3646.63 80 3652 74.6274 3652 68C3652 61.3726 3646.63 56 3640 56C3633.37 56 3628 61.3726 3628 68C3628 74.6274 3633.37 80 3640 80Z" fill="white"/>
<path fill-rule="evenodd" clip-rule="evenodd" d="M3528 80C3534.63 80 3540 74.6274 3540 68C3540 61.3726 3534.63 56 3528 56C3521.37 56 3516 61.3726 3516 68C3516 74.6274 3521.37 80 3528 80Z" fill="white"/>
<path fill-rule="evenodd" clip-rule="evenodd" d="M3416 80C3422.63 80 3428 74.6274 3428 68C3428 61.3726 3422.63 56 3416 56C3409.37 56 3404 61.3726 3404 68C3404 74.6274 3409.37 80 3416 80Z" fill="white"/>
<path fill-rule="evenodd" clip-rule="evenodd" d="M3304 80C3310.63 80 3316 74.6274 3316 68C3316 61.3726 3310.63 56 3304 56C3297.37 56 3292 61.3726 3292 68C3292 74.6274 3297.37 80 3304 80Z" fill="white"/>
<path fill-rule="evenodd" clip-rule="evenodd" d="M3192 80C3198.63 80 3204 74.6274 3204 68C3204 61.3726 3198.63 56 3192 56C3185.37 56 3180 61.3726 3180 68C3180 74.6274 3185.37 80 3192 80Z" fill="white"/>
<path fill-rule="evenodd" clip-rule="evenodd" d="M3080 80C3086.63 80 3092 74.6274 3092 68C3092 61.3726 3086.63 56 3080 56C3073.37 56 3068 61.3726 3068 68C3068 74.6274 3073.37 80 3080 80Z" fill="white"/>
<path fill-rule="evenodd" clip-rule="evenodd" d="M3920 80C3926.63 80 3932 74.6274 3932 68C3932 61.3726 3926.63 56 3920 56C3913.37 56 3908 61.3726 3908 68C3908 74.6274 3913.37 80 3920 80Z" fill="white"/>
<path fill-rule="evenodd" clip-rule="evenodd" d="M3808 80C3814.63 80 3820 74.6274 3820 68C3820 61.3726 3814.63 56 3808 56C3801.37 56 3796 61.3726 3796 68C3796 74.6274 3801.37 80 3808 80Z" fill="white"/>
<path fill-rule="evenodd" clip-rule="evenodd" d="M3696 80C3702.63 80 3708 74.6274 3708 68C3708 61.3726 3702.63 56 3696 56C3689.37 56 3684 61.3726 3684 68C3684 74.6274 3689.37 80 3696 80Z" fill="white"/>
<path fill-rule="evenodd" clip-rule="evenodd" d="M3584 80C3590.63 80 3596 74.6274 3596 68C3596 61.3726 3590.63 56 3584 56C3577.37 56 3572 61.3726 3572 68C3572 74.6274 3577.37 80 3584 80Z" fill="white"/>
<path fill-rule="evenodd" clip-rule="evenodd" d="M3472 80C3478.63 80 3484 74.6274 3484 68C3484 61.3726 3478.63 56 3472 56C3465.37 56 3460 61.3726 3460 68C3460 74.6274 3465.37 80 3472 80Z" fill="white"/>
<path fill-rule="evenodd" clip-rule="evenodd" d="M3360 80C3366.63 80 3372 74.6274 3372 68C3372 61.3726 3366.63 56 3360 56C3353.37 56 3348 61.3726 3348 68C3348 74.6274 3353.37 80 3360 80Z" fill="white"/>
<path fill-rule="evenodd" clip-rule="evenodd" d="M3248 80C3254.63 80 3260 74.6274 3260 68C3260 61.3726 3254.63 56 3248 56C3241.37 56 3236 61.3726 3236 68C3236 74.6274 3241.37 80 3248 80Z" fill="white"/>
<path fill-rule="evenodd" clip-rule="evenodd" d="M3136 80C3142.63 80 3148 74.6274 3148 68C3148 61.3726 3142.63 56 3136 56C3129.37 56 3124 61.3726 3124 68C3124 74.6274 3129.37 80 3136 80Z" fill="white"/>
<path fill-rule="evenodd" clip-rule="evenodd" d="M3024 80C3030.63 80 3036 74.6274 3036 68C3036 61.3726 3030.63 56 3024 56C3017.37 56 3012 61.3726 3012 68C3012 74.6274 3017.37 80 3024 80Z" fill="white"/>
<path fill-rule="evenodd" clip-rule="evenodd" d="M3976 136C3982.63 136 3988 130.627 3988 124C3988 117.373 3982.63 112 3976 112C3969.37 112 3964 117.373 3964 124C3964 130.627 3969.37 136 3976 136Z" fill="white"/>
<path fill-rule="evenodd" clip-rule="evenodd" d="M3864 136C3870.63 136 3876 130.627 3876 124C3876 117.373 3870.63 112 3864 112C3857.37 112 3852 117.373 3852 124C3852 130.627 3857.37 136 3864 136Z" fill="white"/>
<path fill-rule="evenodd" clip-rule="evenodd" d="M3752 136C3758.63 136 3764 130.627 3764 124C3764 117.373 3758.63 112 3752 112C3745.37 112 3740 117.373 3740 124C3740 130.627 3745.37 136 3752 136Z" fill="white"/>
<path fill-rule="evenodd" clip-rule="evenodd" d="M3640 136C3646.63 136 3652 130.627 3652 124C3652 117.373 3646.63 112 3640 112C3633.37 112 3628 117.373 3628 124C3628 130.627 3633.37 136 3640 136Z" fill="white"/>
<path fill-rule="evenodd" clip-rule="evenodd" d="M3528 136C3534.63 136 3540 130.627 3540 124C3540 117.373 3534.63 112 3528 112C3521.37 112 3516 117.373 3516 124C3516 130.627 3521.37 136 3528 136Z" fill="white"/>
<path fill-rule="evenodd" clip-rule="evenodd" d="M3416 136C3422.63 136 3428 130.627 3428 124C3428 117.373 3422.63 112 3416 112C3409.37 112 3404 117.373 3404 124C3404 130.627 3409.37 136 3416 136Z" fill="white"/>
<path fill-rule="evenodd" clip-rule="evenodd" d="M3304 136C3310.63 136 3316 130.627 3316 124C3316 117.373 3310.63 112 3304 112C3297.37 112 3292 117.373 3292 124C3292 130.627 3297.37 136 3304 136Z" fill="white"/>
<path fill-rule="evenodd" clip-rule="evenodd" d="M3192 136C3198.63 136 3204 130.627 3204 124C3204 117.373 3198.63 112 3192 112C3185.37 112 3180 117.373 3180 124C3180 130.627 3185.37 136 3192 136Z" fill="white"/>
<path fill-rule="evenodd" clip-rule="evenodd" d="M3080 136C3086.63 136 3092 130.627 3092 124C3092 117.373 3086.63 112 3080 112C3073.37 112 3068 117.373 3068 124C3068 130.627 3073.37 136 3080 136Z" fill="white"/>
<path fill-rule="evenodd" clip-rule="evenodd" d="M3920 136C3926.63 136 3932 130.627 3932 124C3932 117.373 3926.63 112 3920 112C3913.37 112 3908 117.373 3908 124C3908 130.627 3913.37 136 3920 136Z" fill="white"/>
<path fill-rule="evenodd" clip-rule="evenodd" d="M3808 136C3814.63 136 3820 130.627 3820 124C3820 117.373 3814.63 112 3808 112C3801.37 112 3796 117.373 3796 124C3796 130.627 3801.37 136 3808 136Z" fill="white"/>
<path fill-rule="evenodd" clip-rule="evenodd" d="M3696 136C3702.63 136 3708 130.627 3708 124C3708 117.373 3702.63 112 3696 112C3689.37 112 3684 117.373 3684 124C3684 130.627 3689.37 136 3696 136Z" fill="white"/>
<path fill-rule="evenodd" clip-rule="evenodd" d="M3584 136C3590.63 136 3596 130.627 3596 124C3596 117.373 3590.63 112 3584 112C3577.37 112 3572 117.373 3572 124C3572 130.627 3577.37 136 3584 136Z" fill="white"/>
<path fill-rule="evenodd" clip-rule="evenodd" d="M3472 136C3478.63 136 3484 130.627 3484 124C3484 117.373 3478.63 112 3472 112C3465.37 112 3460 117.373 3460 124C3460 130.627 3465.37 136 3472 136Z" fill="white"/>
<path fill-rule="evenodd" clip-rule="evenodd" d="M3360 136C3366.63 136 3372 130.627 3372 124C3372 117.373 3366.63 112 3360 112C3353.37 112 3348 117.373 3348 124C3348 130.627 3353.37 136 3360 136Z" fill="white"/>
<path fill-rule="evenodd" clip-rule="evenodd" d="M3248 136C3254.63 136 3260 130.627 3260 124C3260 117.373 3254.63 112 3248 112C3241.37 112 3236 117.373 3236 124C3236 130.627 3241.37 136 3248 136Z" fill="white"/>
<path fill-rule="evenodd" clip-rule="evenodd" d="M3136 136C3142.63 136 3148 130.627 3148 124C3148 117.373 3142.63 112 3136 112C3129.37 112 3124 117.373 3124 124C3124 130.627 3129.37 136 3136 136Z" fill="white"/>
<path fill-rule="evenodd" clip-rule="evenodd" d="M3024 136C3030.63 136 3036 130.627 3036 124C3036 117.373 3030.63 112 3024 112C3017.37 112 3012 117.373 3012 124C3012 130.627 3017.37 136 3024 136Z" fill="white"/>
<path fill-rule="evenodd" clip-rule="evenodd" d="M3976 192C3982.63 192 3988 186.627 3988 180C3988 173.373 3982.63 168 3976 168C3969.37 168 3964 173.373 3964 180C3964 186.627 3969.37 192 3976 192Z" fill="white"/>
<path fill-rule="evenodd" clip-rule="evenodd" d="M3864 192C3870.63 192 3876 186.627 3876 180C3876 173.373 3870.63 168 3864 168C3857.37 168 3852 173.373 3852 180C3852 186.627 3857.37 192 3864 192Z" fill="white"/>
<path fill-rule="evenodd" clip-rule="evenodd" d="M3752 192C3758.63 192 3764 186.627 3764 180C3764 173.373 3758.63 168 3752 168C3745.37 168 3740 173.373 3740 180C3740 186.627 3745.37 192 3752 192Z" fill="white"/>
<path fill-rule="evenodd" clip-rule="evenodd" d="M3640 192C3646.63 192 3652 186.627 3652 180C3652 173.373 3646.63 168 3640 168C3633.37 168 3628 173.373 3628 180C3628 186.627 3633.37 192 3640 192Z" fill="white"/>
<path fill-rule="evenodd" clip-rule="evenodd" d="M3528 192C3534.63 192 3540 186.627 3540 180C3540 173.373 3534.63 168 3528 168C3521.37 168 3516 173.373 3516 180C3516 186.627 3521.37 192 3528 192Z" fill="white"/>
<path fill-rule="evenodd" clip-rule="evenodd" d="M3416 192C3422.63 192 3428 186.627 3428 180C3428 173.373 3422.63 168 3416 168C3409.37 168 3404 173.373 3404 180C3404 186.627 3409.37 192 3416 192Z" fill="white"/>
<path fill-rule="evenodd" clip-rule="evenodd" d="M3304 192C3310.63 192 3316 186.627 3316 180C3316 173.373 3310.63 168 3304 168C3297.37 168 3292 173.373 3292 180C3292 186.627 3297.37 192 3304 192Z" fill="white"/>
<path fill-rule="evenodd" clip-rule="evenodd" d="M3192 192C3198.63 192 3204 186.627 3204 180C3204 173.373 3198.63 168 3192 168C3185.37 168 3180 173.373 3180 180C3180 186.627 3185.37 192 3192 192Z" fill="white"/>
<path fill-rule="evenodd" clip-rule="evenodd" d="M3080 192C3086.63 192 3092 186.627 3092 180C3092 173.373 3086.63 168 3080 168C3073.37 168 3068 173.373 3068 180C3068 186.627 3073.37 192 3080 192Z" fill="white"/>
<path fill-rule="evenodd" clip-rule="evenodd" d="M3920 192C3926.63 192 3932 186.627 3932 180C3932 173.373 3926.63 168 3920 168C3913.37 168 3908 173.373 3908 180C3908 186.627 3913.37 192 3920 192Z" fill="white"/>
<path fill-rule="evenodd" clip-rule="evenodd" d="M3808 192C3814.63 192 3820 186.627 3820 180C3820 173.373 3814.63 168 3808 168C3801.37 168 3796 173.373 3796 180C3796 186.627 3801.37 192 3808 192Z" fill="white"/>
<path fill-rule="evenodd" clip-rule="evenodd" d="M3696 192C3702.63 192 3708 186.627 3708 180C3708 173.373 3702.63 168 3696 168C3689.37 168 3684 173.373 3684 180C3684 186.627 3689.37 192 3696 192Z" fill="white"/>
<path fill-rule="evenodd" clip-rule="evenodd" d="M3584 192C3590.63 192 3596 186.627 3596 180C3596 173.373 3590.63 168 3584 168C3577.37 168 3572 173.373 3572 180C3572 186.627 3577.37 192 3584 192Z" fill="white"/>
<path fill-rule="evenodd" clip-rule="evenodd" d="M3472 192C3478.63 192 3484 186.627 3484 180C3484 173.373 3478.63 168 3472 168C3465.37 168 3460 173.373 3460 180C3460 186.627 3465.37 192 3472 192Z" fill="white"/>
<path fill-rule="evenodd" clip-rule="evenodd" d="M3360 192C3366.63 192 3372 186.627 3372 180C3372 173.373 3366.63 168 3360 168C3353.37 168 3348 173.373 3348 180C3348 186.627 3353.37 192 3360 192Z" fill="white"/>
<path fill-rule="evenodd" clip-rule="evenodd" d="M3248 192C3254.63 192 3260 186.627 3260 180C3260 173.373 3254.63 168 3248 168C3241.37 168 3236 173.373 3236 180C3236 186.627 3241.37 192 3248 192Z" fill="white"/>
<path fill-rule="evenodd" clip-rule="evenodd" d="M3136 192C3142.63 192 3148 186.627 3148 180C3148 173.373 3142.63 168 3136 168C3129.37 168 3124 173.373 3124 180C3124 186.627 3129.37 192 3136 192Z" fill="white"/>
<path fill-rule="evenodd" clip-rule="evenodd" d="M3024 192C3030.63 192 3036 186.627 3036 180C3036 173.373 3030.63 168 3024 168C3017.37 168 3012 173.373 3012 180C3012 186.627 3017.37 192 3024 192Z" fill="white"/>
<path fill-rule="evenodd" clip-rule="evenodd" d="M3976 248C3982.63 248 3988 242.627 3988 236C3988 229.373 3982.63 224 3976 224C3969.37 224 3964 229.373 3964 236C3964 242.627 3969.37 248 3976 248Z" fill="white"/>
<path fill-rule="evenodd" clip-rule="evenodd" d="M3864 248C3870.63 248 3876 242.627 3876 236C3876 229.373 3870.63 224 3864 224C3857.37 224 3852 229.373 3852 236C3852 242.627 3857.37 248 3864 248Z" fill="white"/>
<path fill-rule="evenodd" clip-rule="evenodd" d="M3752 248C3758.63 248 3764 242.627 3764 236C3764 229.373 3758.63 224 3752 224C3745.37 224 3740 229.373 3740 236C3740 242.627 3745.37 248 3752 248Z" fill="white"/>
<path fill-rule="evenodd" clip-rule="evenodd" d="M3640 248C3646.63 248 3652 242.627 3652 236C3652 229.373 3646.63 224 3640 224C3633.37 224 3628 229.373 3628 236C3628 242.627 3633.37 248 3640 248Z" fill="white"/>
<path fill-rule="evenodd" clip-rule="evenodd" d="M3528 248C3534.63 248 3540 242.627 3540 236C3540 229.373 3534.63 224 3528 224C3521.37 224 3516 229.373 3516 236C3516 242.627 3521.37 248 3528 248Z" fill="white"/>
<path d="M3425.5 236C3425.5 241.247 3421.25 245.5 3416 245.5C3410.75 245.5 3406.5 241.247 3406.5 236C3406.5 230.753 3410.75 226.5 3416 226.5C3421.25 226.5 3425.5 230.753 3425.5 236Z" stroke="white" stroke-width="5"/>
<path fill-rule="evenodd" clip-rule="evenodd" d="M3304 248C3310.63 248 3316 242.627 3316 236C3316 229.373 3310.63 224 3304 224C3297.37 224 3292 229.373 3292 236C3292 242.627 3297.37 248 3304 248Z" fill="white"/>
<path fill-rule="evenodd" clip-rule="evenodd" d="M3192 248C3198.63 248 3204 242.627 3204 236C3204 229.373 3198.63 224 3192 224C3185.37 224 3180 229.373 3180 236C3180 242.627 3185.37 248 3192 248Z" fill="white"/>
<path fill-rule="evenodd" clip-rule="evenodd" d="M3080 248C3086.63 248 3092 242.627 3092 236C3092 229.373 3086.63 224 3080 224C3073.37 224 3068 229.373 3068 236C3068 242.627 3073.37 248 3080 248Z" fill="white"/>
<path fill-rule="evenodd" clip-rule="evenodd" d="M3920 248C3926.63 248 3932 242.627 3932 236C3932 229.373 3926.63 224 3920 224C3913.37 224 3908 229.373 3908 236C3908 242.627 3913.37 248 3920 248Z" fill="white"/>
<path fill-rule="evenodd" clip-rule="evenodd" d="M3808 248C3814.63 248 3820 242.627 3820 236C3820 229.373 3814.63 224 3808 224C3801.37 224 3796 229.373 3796 236C3796 242.627 3801.37 248 3808 248Z" fill="white"/>
<path fill-rule="evenodd" clip-rule="evenodd" d="M3696 248C3702.63 248 3708 242.627 3708 236C3708 229.373 3702.63 224 3696 224C3689.37 224 3684 229.373 3684 236C3684 242.627 3689.37 248 3696 248Z" fill="white"/>
<path fill-rule="evenodd" clip-rule="evenodd" d="M3584 248C3590.63 248 3596 242.627 3596 236C3596 229.373 3590.63 224 3584 224C3577.37 224 3572 229.373 3572 236C3572 242.627 3577.37 248 3584 248Z" fill="white"/>
<path fill-rule="evenodd" clip-rule="evenodd" d="M3472 248C3478.63 248 3484 242.627 3484 236C3484 229.373 3478.63 224 3472 224C3465.37 224 3460 229.373 3460 236C3460 242.627 3465.37 248 3472 248Z" fill="white"/>
<path fill-rule="evenodd" clip-rule="evenodd" d="M3360 248C3366.63 248 3372 242.627 3372 236C3372 229.373 3366.63 224 3360 224C3353.37 224 3348 229.373 3348 236C3348 242.627 3353.37 248 3360 248Z" fill="white"/>
<path fill-rule="evenodd" clip-rule="evenodd" d="M3248 248C3254.63 248 3260 242.627 3260 236C3260 229.373 3254.63 224 3248 224C3241.37 224 3236 229.373 3236 236C3236 242.627 3241.37 248 3248 248Z" fill="white"/>
<path fill-rule="evenodd" clip-rule="evenodd" d="M3136 248C3142.63 248 3148 242.627 3148 236C3148 229.373 3142.63 224 3136 224C3129.37 224 3124 229.373 3124 236C3124 242.627 3129.37 248 3136 248Z" fill="white"/>
<path fill-rule="evenodd" clip-rule="evenodd" d="M3024 248C3030.63 248 3036 242.627 3036 236C3036 229.373 3030.63 224 3024 224C3017.37 224 3012 229.373 3012 236C3012 242.627 3017.37 248 3024 248Z" fill="white"/>
<path fill-rule="evenodd" clip-rule="evenodd" d="M3976 24C3982.63 24 3988 18.6274 3988 12C3988 5.37258 3982.63 0 3976 0C3969.37 0 3964 5.37258 3964 12C3964 18.6274 3969.37 24 3976 24Z" fill="white"/>
<path fill-rule="evenodd" clip-rule="evenodd" d="M3864 24C3870.63 24 3876 18.6274 3876 12C3876 5.37258 3870.63 0 3864 0C3857.37 0 3852 5.37258 3852 12C3852 18.6274 3857.37 24 3864 24Z" fill="white"/>
<path fill-rule="evenodd" clip-rule="evenodd" d="M3752 24C3758.63 24 3764 18.6274 3764 12C3764 5.37258 3758.63 0 3752 0C3745.37 0 3740 5.37258 3740 12C3740 18.6274 3745.37 24 3752 24Z" fill="white"/>
<path fill-rule="evenodd" clip-rule="evenodd" d="M3640 24C3646.63 24 3652 18.6274 3652 12C3652 5.37258 3646.63 0 3640 0C3633.37 0 3628 5.37258 3628 12C3628 18.6274 3633.37 24 3640 24Z" fill="white"/>
<path fill-rule="evenodd" clip-rule="evenodd" d="M3528 24C3534.63 24 3540 18.6274 3540 12C3540 5.37258 3534.63 0 3528 0C3521.37 0 3516 5.37258 3516 12C3516 18.6274 3521.37 24 3528 24Z" fill="white"/>
<path fill-rule="evenodd" clip-rule="evenodd" d="M3416 24C3422.63 24 3428 18.6274 3428 12C3428 5.37258 3422.63 0 3416 0C3409.37 0 3404 5.37258 3404 12C3404 18.6274 3409.37 24 3416 24Z" fill="white"/>
<path fill-rule="evenodd" clip-rule="evenodd" d="M3304 24C3310.63 24 3316 18.6274 3316 12C3316 5.37258 3310.63 0 3304 0C3297.37 0 3292 5.37258 3292 12C3292 18.6274 3297.37 24 3304 24Z" fill="white"/>
<path fill-rule="evenodd" clip-rule="evenodd" d="M3192 24C3198.63 24 3204 18.6274 3204 12C3204 5.37258 3198.63 0 3192 0C3185.37 0 3180 5.37258 3180 12C3180 18.6274 3185.37 24 3192 24Z" fill="white"/>
<path fill-rule="evenodd" clip-rule="evenodd" d="M3080 24C3086.63 24 3092 18.6274 3092 12C3092 5.37258 3086.63 0 3080 0C3073.37 0 3068 5.37258 3068 12C3068 18.6274 3073.37 24 3080 24Z" fill="white"/>
<path fill-rule="evenodd" clip-rule="evenodd" d="M3920 24C3926.63 24 3932 18.6274 3932 12C3932 5.37258 3926.63 0 3920 0C3913.37 0 3908 5.37258 3908 12C3908 18.6274 3913.37 24 3920 24Z" fill="white"/>
<path fill-rule="evenodd" clip-rule="evenodd" d="M3808 24C3814.63 24 3820 18.6274 3820 12C3820 5.37258 3814.63 0 3808 0C3801.37 0 3796 5.37258 3796 12C3796 18.6274 3801.37 24 3808 24Z" fill="white"/>
<path fill-rule="evenodd" clip-rule="evenodd" d="M3696 24C3702.63 24 3708 18.6274 3708 12C3708 5.37258 3702.63 0 3696 0C3689.37 0 3684 5.37258 3684 12C3684 18.6274 3689.37 24 3696 24Z" fill="white"/>
<path fill-rule="evenodd" clip-rule="evenodd" d="M3584 24C3590.63 24 3596 18.6274 3596 12C3596 5.37258 3590.63 0 3584 0C3577.37 0 3572 5.37258 3572 12C3572 18.6274 3577.37 24 3584 24Z" fill="white"/>
<path fill-rule="evenodd" clip-rule="evenodd" d="M3472 24C3478.63 24 3484 18.6274 3484 12C3484 5.37258 3478.63 0 3472 0C3465.37 0 3460 5.37258 3460 12C3460 18.6274 3465.37 24 3472 24Z" fill="white"/>
<path fill-rule="evenodd" clip-rule="evenodd" d="M3360 24C3366.63 24 3372 18.6274 3372 12C3372 5.37258 3366.63 0 3360 0C3353.37 0 3348 5.37258 3348 12C3348 18.6274 3353.37 24 3360 24Z" fill="white"/>
<path fill-rule="evenodd" clip-rule="evenodd" d="M3248 24C3254.63 24 3260 18.6274 3260 12C3260 5.37258 3254.63 0 3248 0C3241.37 0 3236 5.37258 3236 12C3236 18.6274 3241.37 24 3248 24Z" fill="white"/>
<path fill-rule="evenodd" clip-rule="evenodd" d="M3136 24C3142.63 24 3148 18.6274 3148 12C3148 5.37258 3142.63 0 3136 0C3129.37 0 3124 5.37258 3124 12C3124 18.6274 3129.37 24 3136 24Z" fill="white"/>
<path fill-rule="evenodd" clip-rule="evenodd" d="M3024 24C3030.63 24 3036 18.6274 3036 12C3036 5.37258 3030.63 0 3024 0C3017.37 0 3012 5.37258 3012 12C3012 18.6274 3017.37 24 3024 24Z" fill="white"/>
</svg>
